<?xml version="1.0" encoding="UTF-8"?>
<svg version="1.1" xmlns="http://www.w3.org/2000/svg" width="1024" height="1024">
<path d="M0 0 C0.74348733 0.01891379 1.48697466 0.03782758 2.25299191 0.05731452 C41.98336907 1.10294661 78.34710958 12.9111588 110.36181641 36.57739258 C111.02375 37.06369141 111.68568359 37.54999023 112.36767578 38.05102539 C117.0139438 41.54388184 121.08879387 45.38901338 125.11181641 49.57739258 C126.31837891 50.78395508 126.31837891 50.78395508 127.54931641 52.01489258 C128.39494141 52.86051758 129.24056641 53.70614258 130.11181641 54.57739258 C130.93552734 55.33149414 130.93552734 55.33149414 131.77587891 56.10083008 C146.57165923 70.04417862 158.96260375 89.59049722 166.11181641 108.57739258 C166.11181641 109.23739258 166.11181641 109.89739258 166.11181641 110.57739258 C166.77181641 110.90739258 167.43181641 111.23739258 168.11181641 111.57739258 C168.88964844 113.37158203 168.88964844 113.37158203 169.61962891 115.69067383 C169.88388672 116.52663086 170.14814453 117.36258789 170.42041016 118.22387695 C170.68982422 119.10366211 170.95923828 119.98344727 171.23681641 120.88989258 C171.51396484 121.75807617 171.79111328 122.62625977 172.07666016 123.52075195 C173.30369155 127.45873694 174.11181641 130.39840043 174.11181641 134.57739258 C174.77181641 134.90739258 175.43181641 135.23739258 176.11181641 135.57739258 C185.96341419 174.39630311 179.2247316 218.87082735 160.11181641 253.57739258 C159.54720703 254.6318457 158.98259766 255.68629883 158.40087891 256.77270508 C142.17113018 285.95577438 115.78798928 309.01866829 84.11181641 319.57739258 C83.59308079 325.02411653 83.51875783 328.31119533 86.73291016 332.83520508 C87.27882813 333.613396 87.82474609 334.39158691 88.38720703 335.19335938 C88.95632813 335.98009033 89.52544922 336.76682129 90.11181641 337.57739258 C90.6396875 338.31965088 91.16755859 339.06190918 91.71142578 339.82666016 C93.31182513 342.06519655 94.9281765 344.29133949 96.54931641 346.51489258 C100.71074914 352.24403288 104.83741403 357.98737797 108.84228516 363.82739258 C110.13383401 365.70417243 110.13383401 365.70417243 112.11181641 367.57739258 C113.04999456 368.92990919 113.96370985 370.29950445 114.86181641 371.67895508 C117.83539 376.18791504 120.93733404 380.58332456 124.11181641 384.95239258 C124.94604126 386.1046936 124.94604126 386.1046936 125.79711914 387.28027344 C130.46521462 393.71626096 135.18699343 400.11217725 139.92333984 406.49804688 C142.86737726 410.48059721 145.76538094 414.48723661 148.59228516 418.55395508 C149.14327881 419.34600342 149.69427246 420.13805176 150.26196289 420.95410156 C151.3080086 422.46498553 152.34815006 423.97997884 153.3815918 425.49951172 C154.57633932 427.22682996 155.83768633 428.90776911 157.11181641 430.57739258 C157.77181641 430.57739258 158.43181641 430.57739258 159.11181641 430.57739258 C159.28245605 431.45306885 159.28245605 431.45306885 159.45654297 432.34643555 C160.16804438 434.76882745 161.10138196 436.24780266 162.59619141 438.27270508 C163.37071655 439.3324353 163.37071655 439.3324353 164.16088867 440.41357422 C164.72219482 441.16888428 165.28350098 441.92419434 165.86181641 442.70239258 C167.0533543 444.32859821 168.24475681 445.95490305 169.43603516 447.58129883 C170.35328369 448.8267749 170.35328369 448.8267749 171.2890625 450.09741211 C174.10556369 453.92945324 176.89103804 457.78368553 179.67431641 461.63989258 C180.20710205 462.37731689 180.7398877 463.11474121 181.28881836 463.87451172 C186.53495283 471.14505185 191.72621579 478.45275334 196.859375 485.8034668 C197.95015054 487.3484132 199.06961459 488.87302577 200.19384766 490.39379883 C202.70094854 493.86381433 204.01703569 496.06040688 204.79931641 500.32739258 C203.92730959 504.44960664 202.34650128 505.95883816 199.11181641 508.57739258 C196.76407357 509.75126399 195.35099486 509.71454861 192.73324585 509.73561096 C191.35340767 509.75029419 191.35340767 509.75029419 189.94569397 509.76527405 C188.93365402 509.77102951 187.92161407 509.77678497 186.87890625 509.78271484 C185.81547501 509.79261444 184.75204376 509.80251404 183.65638733 509.81271362 C180.12853245 509.84439338 176.60066409 509.86911165 173.07275391 509.89379883 C170.63180178 509.91436276 168.19085327 509.93535908 165.74990845 509.95677185 C159.31537796 510.01205041 152.88081503 510.06143416 146.44622803 510.10961914 C139.88420717 510.15979198 133.32223361 510.21550003 126.76025391 510.27075195 C113.87748205 510.37840426 100.99466986 510.48002132 88.11181641 510.57739258 C88.11181641 509.91739258 88.11181641 509.25739258 88.11181641 508.57739258 C87.46857422 508.56321289 86.82533203 508.5490332 86.16259766 508.53442383 C70.10692379 507.68697742 58.71306576 500.06971992 48.11181641 488.57739258 C45.8920001 485.82270498 43.83639893 482.96895813 41.79931641 480.07739258 C41.23229004 479.28187988 40.66526367 478.48636719 40.08105469 477.66674805 C35.9672403 471.86563151 31.99006045 465.98345208 28.07666016 460.04614258 C24.12283622 454.061061 20.08025498 448.13565233 16.04931641 442.20239258 C15.2177732 440.97794612 14.38623023 439.75349951 13.5546875 438.52905273 C7.55239721 429.69231511 1.54504124 420.85901562 -4.46362305 412.02661133 C-8.62947943 405.90226395 -12.79079942 399.77486885 -16.94754028 393.64433289 C-18.98446517 390.64025336 -21.02204142 387.63662156 -23.06152344 384.63427734 C-23.45453644 384.0557048 -23.84754944 383.47713226 -24.25247192 382.88102722 C-25.03049915 381.73567292 -25.8085546 380.59033778 -26.5866394 379.44502258 C-28.95334185 375.95958421 -31.31009935 372.46761695 -33.66162109 368.97192383 C-46.18830122 348.97131619 -46.18830122 348.97131619 -65.88818359 337.26489258 C-75.12324259 335.54194349 -84.37487887 335.4178395 -93.74365234 335.40942383 C-95.04466385 335.40609543 -96.34567535 335.40276703 -97.68611145 335.39933777 C-100.42169019 335.39339432 -103.15723754 335.39149319 -105.89282227 335.39208984 C-109.3827313 335.39219187 -112.87243877 335.37847638 -116.36229992 335.36131763 C-119.71858694 335.34748534 -123.07483722 335.34810855 -126.43115234 335.34692383 C-127.67607956 335.33973831 -128.92100677 335.3325528 -130.20365906 335.32514954 C-138.75129308 335.30664754 -138.75129308 335.30664754 -146.88818359 337.57739258 C-150.24404268 342.61118121 -150.01416197 348.19970972 -149.98825073 354.11134338 C-149.98528992 355.38283234 -149.9823291 356.65432129 -149.97927856 357.96434021 C-149.97095688 359.35562176 -149.96256211 360.74690288 -149.95410156 362.13818359 C-149.94890285 363.6171452 -149.94419583 365.09610861 -149.93994141 366.57507324 C-149.93003256 369.74963079 -149.9171954 372.92415815 -149.90221786 376.09869576 C-149.87908236 381.12063071 -149.86583022 386.14256174 -149.85452271 391.16453552 C-149.82114628 405.44144794 -149.77941159 419.71830098 -149.71679688 433.99511719 C-149.68226381 441.88792932 -149.65846269 449.7806981 -149.64658844 457.67357773 C-149.63849772 462.66384744 -149.61727185 467.65383273 -149.58638358 472.64401066 C-149.57036009 475.74941584 -149.56696403 478.85473964 -149.56715393 481.96018219 C-149.56473548 483.39770019 -149.55717276 484.83522037 -149.54402542 486.27268028 C-149.52679787 488.2385226 -149.52999808 490.204512 -149.53414917 492.17042542 C-149.53008497 493.26932885 -149.52602077 494.36823229 -149.52183342 495.50043583 C-150.09961283 500.35317616 -151.8193967 503.5887647 -155.38818359 506.88989258 C-159.1491028 509.42851304 -162.01903364 509.71682689 -166.453125 509.79858398 C-167.6032608 509.82170151 -168.75339661 509.84481903 -169.93838501 509.86863708 C-171.19283417 509.88854202 -172.44728333 509.90844696 -173.73974609 509.92895508 C-175.04648285 509.95260635 -176.3532196 509.97625763 -177.69955444 510.00062561 C-181.23872803 510.06323033 -184.77797736 510.11815698 -188.31732178 510.17013168 C-190.50827483 510.20232046 -192.69920486 510.23584308 -194.89013672 510.2694397 C-212.89313349 510.5399773 -230.88581378 510.68832192 -248.88818359 510.26489258 C-250.13816132 510.23930267 -250.13816132 510.23930267 -251.41339111 510.2131958 C-253.73880351 510.16237634 -256.06331265 510.0977275 -258.38818359 510.02661133 C-260.29083984 509.96993286 -260.29083984 509.96993286 -262.23193359 509.91210938 C-273.13149311 508.91429313 -273.13149311 508.91429313 -276.82568359 504.76489258 C-280.05573911 499.77298861 -280.01349953 495.4174244 -280.01681805 489.55687237 C-280.01857108 488.85859836 -280.02032412 488.16032435 -280.02213028 487.44089052 C-280.026791 485.09547684 -280.02432457 482.75012514 -280.02189636 480.40470886 C-280.02376432 478.7082536 -280.02606497 477.01179878 -280.02876168 475.31534463 C-280.03488844 470.64867632 -280.03474505 465.98202589 -280.03356731 461.31535447 C-280.03336351 456.28372999 -280.03888023 451.2521113 -280.04362488 446.2204895 C-280.05193796 436.35847251 -280.05468006 426.49646149 -280.05523726 416.63444128 C-280.05571233 408.61457795 -280.05776663 400.5947166 -280.06093788 392.5748539 C-280.06974805 369.83104501 -280.07435696 347.08724085 -280.07360741 324.34343024 C-280.07356745 323.11683166 -280.0735275 321.89023308 -280.07348633 320.62646484 C-280.07344545 319.39836542 -280.07340457 318.17026599 -280.07336245 316.90495143 C-280.07295639 297.02180156 -280.08251478 277.13867066 -280.09662469 257.25552627 C-280.11100225 236.83370526 -280.11789404 216.4118935 -280.11703092 195.9900673 C-280.11669931 184.5274245 -280.11943011 173.06480156 -280.13020897 161.60216331 C-280.13933236 151.83734168 -280.14147432 142.07254891 -280.13469955 132.30772486 C-280.13144296 127.32960772 -280.1313463 122.35154589 -280.1400528 117.37343407 C-280.1479575 112.80653565 -280.14644612 108.23973604 -280.13776866 103.67283992 C-280.13624231 102.03005026 -280.13801679 100.38725307 -280.14362874 98.74447229 C-280.23422448 70.31695274 -274.46923911 46.10278408 -254.39208984 25.06958008 C-250.5916087 21.29871307 -246.44788372 18.35417165 -241.88818359 15.57739258 C-241.3382373 15.2401416 -240.78829102 14.90289062 -240.22167969 14.55541992 C-233.22728989 10.34092637 -226.15568039 7.04709434 -218.32568359 4.70239258 C-217.69065918 4.51136963 -217.05563477 4.32034668 -216.40136719 4.12353516 C-204.01490523 0.71207517 -191.46555922 0.27209551 -178.71386719 0.24267578 C-177.03623927 0.23170954 -175.35861659 0.21991531 -173.68099976 0.20736694 C-169.1589119 0.17601898 -164.6368468 0.15658978 -160.11468458 0.13974404 C-155.33225014 0.12017808 -150.54987638 0.09051069 -145.76748657 0.06230164 C-137.71643326 0.01633891 -129.66537164 -0.02205586 -121.61425781 -0.05566406 C-112.4067327 -0.09416853 -103.19931683 -0.14344694 -93.99187982 -0.19899434 C-85.04216566 -0.25280863 -76.09242783 -0.29962768 -67.14265823 -0.3431797 C-63.38210284 -0.3615348 -59.62156843 -0.3819793 -55.86103439 -0.40427208 C-37.23378093 -0.5119549 -18.62207566 -0.49874741 0 0 Z M-194.38818359 101.95239258 C-195.49162109 102.51700195 -196.59505859 103.08161133 -197.73193359 103.66333008 C-210.21737079 111.23494422 -217.41534995 123.64334212 -221.27490234 137.37817383 C-222.96602706 146.20002825 -223.04703585 155.15813053 -223.05615234 164.11254883 C-223.05948074 165.2718541 -223.06280914 166.43115936 -223.0662384 167.62559509 C-223.07126917 170.0601258 -223.07364793 172.49466332 -223.07348633 174.92919922 C-223.07567952 178.63300966 -223.09389499 182.33652501 -223.11279297 186.0402832 C-223.11572645 188.4185374 -223.11771155 190.796793 -223.11865234 193.17504883 C-223.12583786 194.27011246 -223.13302338 195.36517609 -223.14042664 196.49342346 C-223.44755049 207.43122527 -223.44755049 207.43122527 -219.57316589 217.26356506 C-215.2864191 221.04563846 -211.50533447 221.70078321 -205.99303627 221.70882034 C-204.50793885 221.71458206 -204.50793885 221.71458206 -202.99283946 221.72046018 C-201.36474803 221.71916045 -201.36474803 221.71916045 -199.70376587 221.71783447 C-197.97152144 221.72229116 -197.97152144 221.72229116 -196.20428216 221.72683787 C-192.99824927 221.73401689 -189.79224901 221.73669709 -186.5862093 221.73743534 C-183.12873039 221.73928695 -179.67126309 221.74683475 -176.21379089 221.75357056 C-168.65395024 221.76714912 -161.0941149 221.77317763 -153.53426409 221.77758121 C-148.81444085 221.78034399 -144.09461967 221.78458137 -139.37479782 221.78908539 C-126.30809215 221.80127658 -113.24138813 221.81157674 -100.1746769 221.81496048 C-99.33849277 221.81518005 -98.50230864 221.81539961 -97.6407856 221.81562583 C-96.80260047 221.81584411 -95.96441535 221.81606239 -95.10083067 221.81628728 C-93.40234415 221.81673075 -91.70385762 221.81717731 -90.00537109 221.81762695 C-88.74160893 221.8179591 -88.74160893 221.8179591 -87.45231621 221.81829795 C-73.79606212 221.82224726 -60.13986135 221.83970598 -46.48362787 221.86298648 C-32.46453629 221.88669281 -18.44547148 221.89916197 -4.42635953 221.9003284 C3.44554017 221.90124547 11.31737037 221.90700607 19.18925095 221.92514801 C25.89116347 221.94053919 32.59298501 221.94567523 39.29491185 221.93740991 C42.71440148 221.93350012 46.13370783 221.93444888 49.55317497 221.94846725 C53.26008613 221.96111299 56.966524 221.95534969 60.6734314 221.94488525 C61.75436424 221.95294166 62.83529708 221.96099806 63.94898546 221.9692986 C71.15365471 221.92159582 75.58090676 221.00965558 80.93676758 215.86254883 C83.53019885 211.94547495 83.7953706 209.68343869 83.91259766 205.01489258 C83.93638992 204.28238281 83.96018219 203.54987305 83.98469543 202.79516602 C84.05391809 200.3890213 84.08527419 197.98436204 84.11181641 195.57739258 C84.14327559 193.89639775 84.17501827 192.2154082 84.20703125 190.53442383 C84.2774863 186.11750247 84.29751869 181.70186359 84.29711914 177.28442383 C84.29931442 174.57983846 84.31759007 171.87565694 84.33642578 169.17114258 C84.40874816 147.23676194 83.11622561 126.67532037 66.77197266 110.22192383 C61.69243757 105.58188263 56.63654232 101.89729512 50.11181641 99.57739258 C49.47115234 99.32860352 48.83048828 99.07981445 48.17041016 98.82348633 C42.9814928 97.00604827 37.95434626 96.27591277 32.48368835 95.99761963 C31.74427496 95.95751998 31.00486156 95.91742033 30.24304169 95.87610555 C21.30222446 95.43173624 12.36161898 95.42141322 3.41186523 95.41625977 C1.50106209 95.41161728 -0.40974016 95.40659077 -2.32054138 95.4012146 C-7.45667422 95.38823738 -12.5927941 95.38167629 -17.72894073 95.37720394 C-20.94717245 95.37425289 -24.16540077 95.37014477 -27.38363075 95.36569977 C-37.48139844 95.35207161 -47.57915818 95.34237879 -57.67693442 95.33849788 C-69.28334905 95.33401037 -80.88964631 95.31641062 -92.49602526 95.28749728 C-101.50797963 95.26583428 -110.51990105 95.25579135 -119.53188115 95.25445676 C-124.8976908 95.25341325 -130.26338941 95.247601 -135.62917137 95.22963715 C-140.67316646 95.21307325 -145.71696789 95.21104105 -150.76098061 95.21977615 C-152.60149787 95.22054174 -154.44202595 95.21626772 -156.28251648 95.2063179 C-169.54359231 95.1388805 -182.38018388 95.63389749 -194.38818359 101.95239258 Z " fill="#1E7FD3" transform="translate(535.88818359375,249.422607421875)"/>
<path d="M0 0 C4.49693633 4.01265088 6.76114523 8.42036846 7.3125 14.375 C6.85258745 19.70998552 5.0710265 23.39346025 2.125 27.8125 C-6.13094943 33.5916646 -18.88852904 32.31827296 -28.6953125 32.26074219 C-30.89350293 32.24990881 -33.09089485 32.26076514 -35.2890625 32.2734375 C-36.71093927 32.27211741 -38.13281556 32.26955814 -39.5546875 32.265625 C-40.81780762 32.26336914 -42.08092773 32.26111328 -43.38232422 32.25878906 C-48.69277477 31.878908 -52.70761362 31.0913485 -56.8125 27.625 C-60.7286942 22.92556696 -61.45464292 19.50982411 -61.3125 13.46875 C-60.84297466 9.75949983 -59.48659428 7.74834104 -57 5 C-52.77242835 1.77157633 -49.56932852 0.40944637 -44.30859375 -0.265625 C-43.03306641 -0.43320312 -41.75753906 -0.60078125 -40.44335938 -0.7734375 C-39.78360107 -0.85174805 -39.12384277 -0.93005859 -38.4440918 -1.01074219 C-36.46502293 -1.24671828 -34.48925876 -1.5098948 -32.51367188 -1.7734375 C-8.88694149 -4.76086151 -8.88694149 -4.76086151 0 0 Z " fill="#1E81D5" transform="translate(595,386)"/>
<path d="M0 0 C2.23812136 0.0703062 4.4762621 0.12462041 6.71484375 0.17797852 C8.14195655 0.22062328 9.56904154 0.2642115 10.99609375 0.30883789 C12.93742187 0.36551636 12.93742187 0.36551636 14.91796875 0.42333984 C17.99887384 0.73319319 19.64087386 1.20451953 22.24609375 2.75805664 C23.88652578 3.19550518 25.53285513 3.61126893 27.18359375 4.00805664 C32.40251279 5.54529347 34.39499942 7.12502836 37.24609375 11.75805664 C39.18778593 16.04596021 39.48853275 18.92358807 38.24609375 23.38305664 C36.56643293 27.65128566 34.39978598 30.66364086 30.24609375 32.75805664 C22.28818953 35.34409804 13.79068609 35.13045424 5.51464844 35.12866211 C3.2498931 35.13304928 0.98707054 35.16951881 -1.27734375 35.20727539 C-9.2965616 35.26955834 -16.68312436 35.03129686 -23.75390625 30.75805664 C-27.8474725 26.66449039 -28.91545956 23.1963635 -29.06640625 17.50805664 C-28.99316999 11.96407182 -28.21595431 9.10780933 -24.75390625 4.75805664 C-17.00573999 -1.1204825 -9.231188 -0.29912132 0 0 Z " fill="#1E81D6" transform="translate(357.75390625,383.241943359375)"/>
<path d="M0 0 C0.99 0.495 0.99 0.495 2 1 C-5.01074943 7.10194857 -12.64627968 11.11186289 -21 15 C-22.39992188 15.65742187 -22.39992188 15.65742187 -23.828125 16.328125 C-29.66109155 19 -29.66109155 19 -32 19 C-32.51873561 24.44672395 -32.59305858 27.73380275 -29.37890625 32.2578125 C-28.83298828 33.03600342 -28.28707031 33.81419434 -27.72460938 34.6159668 C-27.15548828 35.40269775 -26.58636719 36.18942871 -26 37 C-25.47212891 37.7422583 -24.94425781 38.4845166 -24.40039062 39.24926758 C-22.79999128 41.48780397 -21.18363991 43.71394691 -19.5625 45.9375 C-15.40106727 51.66664031 -11.27440238 57.4099854 -7.26953125 63.25 C-5.97798239 65.12677985 -5.97798239 65.12677985 -4 67 C-3.06182185 68.35251662 -2.14810656 69.72211187 -1.25 71.1015625 C1.7235736 75.61052246 4.82551763 80.00593199 8 84.375 C8.83422485 85.52730103 8.83422485 85.52730103 9.68530273 86.70288086 C14.35339821 93.13886838 19.07517703 99.53478467 23.81152344 105.9206543 C26.75556086 109.90320464 29.65356453 113.90984404 32.48046875 117.9765625 C33.0314624 118.76861084 33.58245605 119.56065918 34.15014648 120.37670898 C35.1961922 121.88759295 36.23633366 123.40258626 37.26977539 124.92211914 C38.46452291 126.64943739 39.72586993 128.33037653 41 130 C41.66 130 42.32 130 43 130 C43.11375977 130.58378418 43.22751953 131.16756836 43.34472656 131.76904297 C44.05622797 134.19143487 44.98956556 135.67041008 46.484375 137.6953125 C47.25890015 138.75504272 47.25890015 138.75504272 48.04907227 139.83618164 C48.89103149 140.96914673 48.89103149 140.96914673 49.75 142.125 C50.94153789 143.75120563 52.1329404 145.37751048 53.32421875 147.00390625 C53.93571777 147.83422363 54.5472168 148.66454102 55.17724609 149.52001953 C57.99374729 153.35206066 60.77922163 157.20629295 63.5625 161.0625 C64.09528564 161.79992432 64.62807129 162.53734863 65.17700195 163.29711914 C70.42313642 170.56765928 75.61439938 177.87536076 80.74755859 185.22607422 C81.83833413 186.77102062 82.95779819 188.29563319 84.08203125 189.81640625 C86.58913213 193.28642176 87.90521929 195.4830143 88.6875 199.75 C87.81549318 203.87221406 86.23468487 205.38144558 83 208 C80.65225717 209.17387142 79.23917846 209.13715604 76.62142944 209.15821838 C75.24159126 209.17290161 75.24159126 209.17290161 73.83387756 209.18788147 C72.82183762 209.19363693 71.80979767 209.1993924 70.76708984 209.20532227 C69.17194298 209.22017166 69.17194298 209.22017166 67.54457092 209.23532104 C64.01671605 209.2670008 60.48884768 209.29171907 56.9609375 209.31640625 C54.51998538 209.33697018 52.07903686 209.3579665 49.63809204 209.37937927 C43.20356155 209.43465783 36.76899862 209.48404158 30.33441162 209.53222656 C23.77239077 209.5823994 17.21041721 209.63810745 10.6484375 209.69335938 C-2.23433435 209.80101168 -15.11714655 209.90262875 -28 210 C-28 209.34 -28 208.68 -28 208 C-28.64324219 207.98582031 -29.28648437 207.97164062 -29.94921875 207.95703125 C-46.00489261 207.10958484 -57.39875065 199.49232734 -68 188 C-70.2198163 185.2453124 -72.27541748 182.39156555 -74.3125 179.5 C-74.87952637 178.7044873 -75.44655273 177.90897461 -76.03076172 177.08935547 C-80.1445761 171.28823894 -84.12175596 165.4060595 -88.03515625 159.46875 C-91.98898019 153.48366842 -96.03156143 147.55825975 -100.0625 141.625 C-100.89404321 140.40055355 -101.72558617 139.17610693 -102.55712891 137.95166016 C-108.5594192 129.11492253 -114.56677517 120.28162304 -120.57543945 111.44921875 C-124.74129583 105.32487137 -128.90261582 99.19747627 -133.05935669 93.06694031 C-135.09628157 90.06286078 -137.13385783 87.05922899 -139.17333984 84.05688477 C-139.76285934 83.18902596 -139.76285934 83.18902596 -140.36428833 82.30363464 C-141.14231556 81.15828034 -141.920371 80.0129452 -142.69845581 78.86763 C-145.06515826 75.38219163 -147.42191576 71.89022437 -149.7734375 68.39453125 C-155.01914996 60.62197518 -160.29056973 53.06887737 -166.390625 45.93359375 C-168 44 -168 44 -169 42 C-159.44580498 46.14576304 -153.94330188 57.30666768 -148.48486328 65.72216797 C-145.62646425 70.10705173 -142.7157472 74.45724323 -139.8125 78.8125 C-139.24257324 79.67133789 -138.67264648 80.53017578 -138.08544922 81.41503906 C-134.66710099 86.55391313 -131.17858983 91.63617731 -127.62768555 96.68432617 C-125.39682437 99.85812522 -123.19567497 103.05180098 -121 106.25 C-120.54270508 106.91563965 -120.08541016 107.5812793 -119.61425781 108.26708984 C-111.80006242 119.65178737 -104.03112505 131.06767958 -96.26953125 142.48828125 C-95.0339925 144.3047816 -93.79831584 146.12118815 -92.5625 147.9375 C-91.95752686 148.82743652 -91.35255371 149.71737305 -90.72924805 150.63427734 C-87.35313546 155.58887259 -83.94468678 160.51857468 -80.5 165.42578125 C-79.75935303 166.48224854 -79.01870605 167.53871582 -78.25561523 168.62719727 C-76.81661254 170.67621023 -75.37354624 172.72237663 -73.92602539 174.76538086 C-73.28141357 175.68327393 -72.63680176 176.60116699 -71.97265625 177.546875 C-71.11039429 178.76648926 -71.11039429 178.76648926 -70.23071289 180.01074219 C-69 182 -69 182 -69 184 C-68.34 184 -67.68 184 -67 184 C-66.18359914 185.1138257 -65.42330684 186.26886561 -64.6875 187.4375 C-58.62627679 195.78653785 -48.91913296 201.57161812 -39 204 C-38.34268041 204.17542926 -37.68536081 204.35085852 -37.00812244 204.53160381 C-30.91091805 206.05115614 -25.11667659 206.29018871 -18.85229492 206.2746582 C-17.77475952 206.27976913 -16.69722412 206.28488007 -15.58703613 206.29014587 C-12.05145608 206.3039643 -8.51607247 206.30309194 -4.98046875 206.30078125 C-2.51426624 206.30467041 -0.04806439 206.30900553 2.4181366 206.31376648 C7.57329487 206.32121048 12.72838461 206.3209491 17.88354492 206.31567383 C24.49579658 206.30985983 31.10776988 206.32686569 37.71997547 206.3500185 C42.80624536 206.36472715 47.89244759 206.36563183 52.97873497 206.36250877 C55.41763552 206.36302271 57.85653978 206.36827399 60.29541969 206.37832069 C63.69688899 206.39062156 67.09780748 206.38393299 70.49926758 206.37231445 C71.50867905 206.37995819 72.51809052 206.38760193 73.55809021 206.39547729 C74.94778519 206.38495583 74.94778519 206.38495583 76.36555481 206.3742218 C77.57031826 206.37447341 77.57031826 206.37447341 78.79942036 206.37473011 C81.58717092 205.90001242 82.96084747 204.93540501 85 203 C86.15671444 197.95251879 84.80373253 195.21923289 82.125 190.875 C78.94729154 186.18803922 75.52764125 181.70305634 72.03662109 177.24609375 C68.63237811 172.88420977 65.41905662 168.40998427 62.25 163.875 C57.92058875 157.6829106 53.5002466 151.56906628 49 145.5 C44.01859965 138.77848872 39.14057764 131.99542904 34.33691406 125.14599609 C29.72510052 118.58041694 24.98360817 112.11447018 20.22119141 105.65771484 C15.10442999 98.71193115 10.069281 91.7084376 5.06225586 84.68334961 C1.56089103 79.77482627 -1.96667176 74.88555143 -5.5 70 C-9.86498612 63.96451086 -14.21285573 57.91751572 -18.53198242 51.84912109 C-21.09532077 48.25169377 -23.69588312 44.68379423 -26.3125 41.125 C-27.54425506 39.41853203 -28.77365357 37.710359 -30 36 C-30.52980469 35.28199219 -31.05960938 34.56398438 -31.60546875 33.82421875 C-34.91870057 29.04462663 -36.04969457 25.82103352 -35 20 C-30.96046879 16.02103147 -27.39743924 14.13445077 -22 12.25 C-15.53300166 9.8825226 -10.03009576 6.74897201 -4.39257812 2.80761719 C-2.96252786 1.82036157 -1.4848204 0.9027878 0 0 Z " fill="#1462AC" transform="translate(652,550)"/>
<path d="M0 0 C2.71297892 2.71297892 2.25363423 4.13513017 2.26069641 7.93267822 C2.26778122 9.19729385 2.27486603 10.46190948 2.28216553 11.7648468 C2.27987145 13.17428624 2.27736172 14.58372535 2.2746582 15.99316406 C2.2790035 17.4713924 2.28418603 18.94961848 2.29014587 20.42784119 C2.30357055 24.45074984 2.30411044 28.47356474 2.30158257 32.49649143 C2.30051466 35.85371242 2.30539191 39.2109143 2.310188 42.56813121 C2.32129634 50.490585 2.32171392 58.4129914 2.31567383 66.33544922 C2.30963931 74.50722246 2.32192869 82.67882329 2.3432439 90.8505671 C2.36086654 97.86466706 2.36685999 104.87871219 2.36360615 111.89283347 C2.36179334 116.08265855 2.36442873 120.2723608 2.37832069 124.46216583 C2.39090432 128.40530884 2.38894998 132.34818378 2.37590981 136.29132271 C2.37354518 137.73688154 2.37627467 139.18245926 2.38453293 140.62799644 C2.39501124 142.60510192 2.38509105 144.58228384 2.3742218 146.55938721 C2.37438954 147.66478474 2.37455729 148.77018227 2.37473011 149.90907669 C1.78584233 154.76645784 0.07425757 158.00631175 -3.5 161.3125 C-7.26091921 163.85112046 -10.13085005 164.13943431 -14.56494141 164.22119141 C-15.71507721 164.24430893 -16.86521301 164.26742645 -18.05020142 164.29124451 C-19.30465057 164.31114944 -20.55909973 164.33105438 -21.8515625 164.3515625 C-23.81166763 164.38703941 -23.81166763 164.38703941 -25.81137085 164.42323303 C-29.35054444 164.48583775 -32.88979376 164.5407644 -36.42913818 164.59273911 C-38.62009124 164.62492788 -40.81102126 164.6584505 -43.00195312 164.69204712 C-61.0049499 164.96258473 -78.99763019 165.11092934 -97 164.6875 C-97.83331848 164.67044006 -98.66663696 164.65338013 -99.52520752 164.63580322 C-101.85061991 164.58498376 -104.17512905 164.52033492 -106.5 164.44921875 C-108.40265625 164.39254028 -108.40265625 164.39254028 -110.34375 164.3347168 C-121.24330952 163.33690055 -121.24330952 163.33690055 -124.9375 159.1875 C-128.54543142 153.61160598 -128.15492296 148.06841157 -128.125 141.625 C-128.12886719 140.8 -128.13273438 139.975 -128.13671875 139.125 C-128.12907752 134.31102543 -127.80603865 129.74667208 -127 125 C-126.67 125 -126.34 125 -126 125 C-125.99589111 125.8470752 -125.99178223 126.69415039 -125.98754883 127.56689453 C-125.96046092 130.73206254 -125.91126375 133.8959234 -125.84741211 137.06054688 C-125.82432106 138.42598665 -125.8098573 139.79160229 -125.80444336 141.15722656 C-125.7950906 143.12850046 -125.75137419 145.09951521 -125.70703125 147.0703125 C-125.6913208 148.25383301 -125.67561035 149.43735352 -125.65942383 150.65673828 C-124.84120866 154.80506798 -123.42901737 157.54040551 -120 160 C-116.34101893 160.87513628 -112.76165654 160.76884461 -109.01513672 160.69702148 C-107.90731842 160.69950394 -106.79950012 160.70198639 -105.65811157 160.70454407 C-101.99794101 160.70546204 -98.33958991 160.66365342 -94.6796875 160.62109375 C-92.13811961 160.61243943 -89.59654203 160.60629358 -87.05496216 160.60255432 C-81.73020237 160.58883672 -76.40605585 160.55682689 -71.08154297 160.50756836 C-63.57227118 160.4381436 -56.06323144 160.40881339 -48.55369163 160.38716781 C-42.72065562 160.36886726 -36.88766916 160.33929186 -31.0546875 160.30859375 C-29.18458323 160.29895505 -29.18458323 160.29895505 -27.27669907 160.28912163 C-23.75974893 160.26819059 -20.24294692 160.23989834 -16.72607422 160.20874023 C-15.67873108 160.20290924 -14.63138794 160.19707825 -13.55230713 160.19107056 C-12.59619537 160.18102493 -11.64008362 160.17097931 -10.65499878 160.16062927 C-9.82358305 160.15375815 -8.99216732 160.14688704 -8.13555717 160.1398077 C-5.81246358 160.07836445 -5.81246358 160.07836445 -3 159 C-0.9341744 155.18732977 -0.74247699 151.83654374 -0.7215271 147.55229187 C-0.71036362 146.24963882 -0.69920013 144.94698578 -0.68769836 143.6048584 C-0.68533361 142.16845732 -0.68315793 140.73205592 -0.68115234 139.2956543 C-0.67185063 137.77768929 -0.66168159 136.25972938 -0.65071106 134.74177551 C-0.62342435 130.62651118 -0.6082656 126.51128106 -0.59528303 122.39595008 C-0.57964669 118.09309452 -0.55285806 113.79030875 -0.5272522 109.48750305 C-0.48047334 101.34202335 -0.4437249 93.1965305 -0.41057932 85.05098516 C-0.37235164 75.77651644 -0.32294316 66.50211783 -0.27259517 57.22770822 C-0.16928859 38.1518568 -0.08002403 19.07596258 0 0 Z " fill="#1E6BB2" transform="translate(384,595)"/>
<path d="M0 0 C0.33 0 0.66 0 1 0 C1.0816082 2.37570543 1.14077222 4.74855841 1.1875 7.125 C1.22520508 8.12273437 1.22520508 8.12273437 1.26367188 9.140625 C1.33336606 13.87982973 0.47515181 16.97565246 -2 21 C-7.81271662 26.81271662 -14.37106864 27.22626964 -22.1825577 27.26282471 C-23.77521883 27.25510937 -23.77521883 27.25510937 -25.40005493 27.24723816 C-26.54181919 27.24965257 -27.68358344 27.25206699 -28.85994661 27.25455457 C-32.68224281 27.26018615 -36.50437149 27.25153238 -40.32666016 27.24291992 C-43.06831585 27.24288574 -45.80996644 27.24585172 -48.55162048 27.24867249 C-55.2226171 27.25370723 -61.89356403 27.24808219 -68.56455447 27.23882218 C-76.33371531 27.22842625 -84.10286548 27.22850868 -91.87203197 27.22899476 C-105.73305783 27.22949511 -119.5940606 27.22034081 -133.45507812 27.20581055 C-146.90527772 27.19171824 -160.35545699 27.18464004 -173.80566406 27.18530273 C-175.04872259 27.18536267 -175.04872259 27.18536267 -176.31689341 27.18542381 C-177.14416715 27.18546417 -177.97144088 27.18550452 -178.82378352 27.1855461 C-194.13850742 27.18623591 -209.4532227 27.18034678 -224.76794381 27.17139288 C-230.18384418 27.16837667 -235.59974296 27.16731335 -241.01564407 27.16686058 C-247.61392204 27.16617848 -254.21218545 27.1617142 -260.81045724 27.15252777 C-264.17712794 27.14791082 -267.54376417 27.14539563 -270.91044044 27.14612198 C-274.55828733 27.14661126 -278.20607386 27.14097086 -281.85391235 27.13371277 C-283.45326565 27.13603567 -283.45326565 27.13603567 -285.08492911 27.1384055 C-286.06243482 27.13518106 -287.03994054 27.13195661 -288.04706764 27.12863445 C-288.88891031 27.12793003 -289.73075298 27.1272256 -290.59810603 27.12649983 C-293.14558761 26.99233238 -295.51379041 26.55838807 -298 26 C-298 25.67 -298 25.34 -298 25 C-297.0956665 24.99853479 -297.0956665 24.99853479 -296.17306364 24.99703997 C-260.44941643 24.93878146 -224.7258342 24.86499494 -189.00226267 24.77101372 C-184.71391108 24.75974541 -180.42555917 24.74860698 -176.13720703 24.73754883 C-174.85659409 24.7342433 -174.85659409 24.7342433 -173.55011018 24.730871 C-159.72227296 24.69548832 -145.8944358 24.67062967 -132.06657009 24.64965298 C-117.88032917 24.62789866 -103.69414706 24.59485176 -89.50795615 24.55129844 C-80.75269331 24.52477535 -71.99750375 24.50708483 -63.24220271 24.50065396 C-57.24023724 24.49540208 -51.23836403 24.47919187 -45.23644798 24.45433434 C-41.77245387 24.44031242 -38.30862494 24.43115108 -34.84460068 24.43499184 C-31.08927039 24.43663732 -27.33445319 24.42000626 -23.57919312 24.39872742 C-22.48385895 24.40357499 -21.38852479 24.40842257 -20.25999868 24.41341704 C-13.46072977 24.34964227 -8.82952312 23.67072335 -3.703125 18.83203125 C-1.47602553 15.12871217 -1.1144785 11.93595248 -0.75 7.6875 C-0.63398437 6.57665039 -0.63398437 6.57665039 -0.515625 5.44335938 C-0.32848259 3.63041732 -0.16212296 1.81535046 0 0 Z " fill="#0E68B8" transform="translate(620,446)"/>
<path d="M0 0 C5.91243103 -0.33943195 10.59780564 0.82408112 16.1875 2.6875 C17.02901611 2.96223145 17.87053223 3.23696289 18.73754883 3.52001953 C25.30781356 5.6981263 31.71480863 8.09034054 38 11 C38.59312988 11.27005859 39.18625977 11.54011719 39.79736328 11.81835938 C55.01648288 18.81228398 68.28762774 28.14641158 81 39 C81.65355469 39.53109375 82.30710937 40.0621875 82.98046875 40.609375 C86.7873254 43.73553543 90.0183692 47.13534542 93.19921875 50.89453125 C94.37872611 52.27360819 95.58921801 53.62690786 96.83203125 54.94921875 C105.899616 64.64470142 113.00745626 75.90605711 119.5 87.4375 C120.11367432 88.51825806 120.11367432 88.51825806 120.73974609 89.62084961 C123.16816971 94.04517518 124.9111456 98.38129279 126.30664062 103.23461914 C126.85350214 105.2055142 126.85350214 105.2055142 129 106 C129.77783203 107.79418945 129.77783203 107.79418945 130.5078125 110.11328125 C130.90419922 111.3672168 130.90419922 111.3672168 131.30859375 112.64648438 C131.57800781 113.52626953 131.84742188 114.40605469 132.125 115.3125 C132.40214844 116.18068359 132.67929687 117.04886719 132.96484375 117.94335938 C134.19187514 121.88134436 135 124.82100785 135 129 C135.66 129.33 136.32 129.66 137 130 C143.37883016 155.13493167 142.28568391 186.0256309 136 211 C135.34 211 134.68 211 134 211 C134.14230808 209.58297487 134.28900746 208.1663904 134.4375 206.75 C134.55931641 205.56664062 134.55931641 205.56664062 134.68359375 204.359375 C135 202 135 202 135.48583984 200.20825195 C140.58369076 178.31363585 138.61151375 149.5495135 133 128 C132.73509766 126.94256592 132.73509766 126.94256592 132.46484375 125.86376953 C127.12601598 105.13626506 116.70786617 85.12031971 104 68 C103.505 67.31164062 103.01 66.62328125 102.5 65.9140625 C89.45875035 48.37358171 73.38416296 34.59012801 55 23 C54.04996094 22.38511719 53.09992187 21.77023437 52.12109375 21.13671875 C38.59649633 12.76801338 23.7276965 6.88739509 8.22070312 3.49560547 C2.17119312 2.17119312 2.17119312 2.17119312 0 0 Z " fill="#1364B0" transform="translate(575,255)"/>
<path d="M0 0 C2.04274584 -0.00079188 4.08549154 -0.00289221 6.12823486 -0.00619507 C11.64847701 -0.01130663 17.16853113 0.0021595 22.68874311 0.01933193 C28.4732869 0.03441782 34.25782875 0.03319501 40.04238892 0.03399658 C49.74801831 0.0376825 59.4535767 0.05261917 69.15917969 0.07519531 C81.61832758 0.10411737 94.07741848 0.11442442 106.5365963 0.11887741 C117.25524228 0.12285611 127.97387588 0.13535371 138.69251299 0.14922428 C142.13621906 0.15332146 145.57992469 0.15624789 149.02363205 0.15901947 C154.42944021 0.1639129 159.83521385 0.17411709 165.24100494 0.18845749 C167.22558149 0.1929787 169.21016269 0.19581873 171.19474411 0.19686508 C173.90089065 0.19861211 176.60695101 0.20649835 179.31307983 0.21600342 C180.49395442 0.21470369 180.49395442 0.21470369 181.69868505 0.21337771 C185.50158373 0.23345072 189.03961047 0.43618428 192.73681641 1.35644531 C192.73681641 1.68644531 192.73681641 2.01644531 192.73681641 2.35644531 C181.59254791 3.3690763 170.55668906 3.47556531 159.37744141 3.42236328 C157.46708296 3.41715854 155.55672311 3.41245276 153.6463623 3.40820312 C149.55959776 3.39832806 145.4728572 3.38550423 141.3861084 3.37047958 C134.91219994 3.34724279 128.43829442 3.33406197 121.96435547 3.32278442 C103.56424982 3.28949221 85.16419074 3.2477494 66.76416016 3.18505859 C56.58115631 3.15044839 46.39818628 3.12669802 36.21512985 3.11485016 C29.79119942 3.10679335 23.36749251 3.08565234 16.94363403 3.0546453 C12.93537808 3.03854286 8.92718471 3.03522638 4.91889954 3.03541565 C3.07353791 3.03301155 1.22817405 3.0255157 -0.61714172 3.01228714 C-14.04639078 2.92010064 -26.90839443 3.3724332 -38.95068359 10.04394531 C-45.00645482 13.35644531 -45.00645482 13.35644531 -48.26318359 13.35644531 C-42.90891871 8.97966203 -37.72683718 5.80280152 -31.26318359 3.35644531 C-30.19812371 2.95018858 -30.19812371 2.95018858 -29.11154747 2.53572464 C-19.59008621 -0.55251815 -9.89071228 -0.04946614 0 0 Z " fill="#0B64B4" transform="translate(380.26318359375,342.6435546875)"/>
<path d="M0 0 C1.58783402 0.03754818 3.17573725 0.07228809 4.76369762 0.10404658 C6.94711213 0.14963303 9.12976496 0.20819658 11.31273985 0.2711314 C12.54928438 0.30332303 13.78582891 0.33551466 15.05984449 0.36868179 C18.19353819 0.6894511 18.19353819 0.6894511 22.19353819 2.6894511 C-45.12646181 2.6894511 -112.44646181 2.6894511 -181.80646181 2.6894511 C-181.80646181 2.0294511 -181.80646181 1.3694511 -181.80646181 0.6894511 C-161.04531416 0.53411785 -140.28412496 0.38615094 -119.52286577 0.2464875 C-109.87876363 0.18144654 -100.2346876 0.11417164 -90.5906415 0.04125774 C-82.16547388 -0.02243474 -73.74028741 -0.08154932 -65.31505227 -0.13560444 C-60.87162913 -0.16426113 -56.42824404 -0.19491087 -51.9848752 -0.23108304 C-34.65291746 -0.37061829 -17.32890673 -0.41197728 0 0 Z " fill="#0762B5" transform="translate(533.8064618110657,249.31054890155792)"/>
<path d="M0 0 C-0.33 0.66 -0.66 1.32 -1 2 C-2.828125 2.60546875 -2.828125 2.60546875 -5.25 3.1875 C-24.02653075 8.54457011 -40.51525891 22.05405701 -50.21875 38.765625 C-51.10046875 40.36664063 -51.10046875 40.36664063 -52 42 C-52.4846875 42.86109375 -52.969375 43.7221875 -53.46875 44.609375 C-61.00015607 59.39664789 -61.5944362 76.27814877 -61.54589844 92.51635742 C-61.55465965 94.48958643 -61.56515416 96.46280836 -61.57722473 98.4360199 C-61.60479359 103.7281723 -61.60849593 109.02008958 -61.60750484 114.3123033 C-61.61065928 119.86697101 -61.63632952 125.42153667 -61.65948486 130.97615051 C-61.69985611 141.46572601 -61.72034093 151.95523964 -61.73345876 162.44488078 C-61.74939314 174.39919988 -61.7878355 186.35341464 -61.82805204 198.30767286 C-61.91019236 222.87174677 -61.96444561 247.43581755 -62 272 C-62.33 272 -62.66 272 -63 272 C-63.09362389 245.54768651 -63.16406754 219.09539802 -63.20724869 192.64295197 C-63.22783528 180.35940497 -63.25588106 168.07596119 -63.30175781 155.79248047 C-63.34174526 145.08071015 -63.36746115 134.36901462 -63.37635398 123.65717173 C-63.38154859 117.99030194 -63.39367596 112.32364603 -63.42292023 106.65684509 C-63.45027774 101.31182416 -63.45840425 95.96710312 -63.45243073 90.62201881 C-63.45352193 88.67107826 -63.46135362 86.72012659 -63.4768219 84.76924706 C-63.58833776 69.9657513 -62.37985821 55.86736952 -55.1875 42.5625 C-54.84275635 41.90056641 -54.4980127 41.23863281 -54.14282227 40.55664062 C-51.29586859 35.23484142 -47.97666079 30.54344922 -44 26 C-43.47019531 25.32839844 -42.94039063 24.65679687 -42.39453125 23.96484375 C-33.70212568 13.24902786 -14.56387531 -0.85669855 0 0 Z " fill="#0256A6" transform="translate(320,255)"/>
<path d="M0 0 C4.49693633 4.01265088 6.76114523 8.42036846 7.3125 14.375 C6.85258745 19.70998552 5.0710265 23.39346025 2.125 27.8125 C-6.13094943 33.5916646 -18.88852904 32.31827296 -28.6953125 32.26074219 C-30.89350293 32.24990881 -33.09089485 32.26076514 -35.2890625 32.2734375 C-36.71093927 32.27211741 -38.13281556 32.26955814 -39.5546875 32.265625 C-40.81780762 32.26336914 -42.08092773 32.26111328 -43.38232422 32.25878906 C-48.69277477 31.878908 -52.70761362 31.0913485 -56.8125 27.625 C-60.7286942 22.92556696 -61.45464292 19.50982411 -61.3125 13.46875 C-60.68619433 8.52093521 -57.98192431 5.93282809 -54.5 2.625 C-49.37850249 0.24716187 -44.55638275 0.67632722 -39 1 C-39 1.33 -39 1.66 -39 2 C-39.79664063 2.08636719 -40.59328125 2.17273438 -41.4140625 2.26171875 C-48.15381744 3.15543321 -52.32772756 3.94889466 -57 9 C-58.84206499 12.68412999 -58.3617633 16.96982986 -58 21 C-56.38727433 24.68623011 -55.369675 25.75355 -52 28 C-49.80225243 28.31590303 -49.80225243 28.31590303 -47.34838867 28.29052734 C-46.40698532 28.30328705 -45.46558197 28.31604675 -44.49565125 28.32919312 C-43.48001602 28.33141876 -42.4643808 28.33364441 -41.41796875 28.3359375 C-40.37103348 28.3425943 -39.32409821 28.3492511 -38.24543762 28.35610962 C-36.02879596 28.36624017 -33.81212377 28.37092652 -31.59545898 28.37060547 C-28.21091089 28.37496981 -24.82767592 28.41126196 -21.44335938 28.44921875 C-19.28906696 28.45508862 -17.13476835 28.45905687 -14.98046875 28.4609375 C-13.97090622 28.47530853 -12.96134369 28.48967957 -11.92118835 28.50448608 C-5.96946634 28.46597096 -2.52502261 27.98224087 2 24 C4.44791417 19.99432226 4.59349269 15.5860799 4 11 C2.16645767 6.3724884 0.33418188 3.17359321 -4.1472168 0.92041016 C-7.69038262 -0.22274219 -10.55154201 -0.12956617 -14.26953125 0.0234375 C-15.29103523 0.06097641 -15.29103523 0.06097641 -16.33317566 0.09927368 C-18.49349371 0.1809929 -20.65283038 0.27776312 -22.8125 0.375 C-24.28316393 0.433289 -25.75386733 0.49059118 -27.22460938 0.546875 C-30.81693385 0.68649768 -34.40853557 0.83961866 -38 1 C-38 0.34 -38 -0.32 -38 -1 C-9.10210076 -4.87612541 -9.10210076 -4.87612541 0 0 Z " fill="#166DBB" transform="translate(595,386)"/>
<path d="M0 0 C3.96874262 3.76099256 7.19093924 7.75090665 10.375 12.1875 C10.85179199 12.84516357 11.32858398 13.50282715 11.81982422 14.18041992 C24.71118144 32.00671582 24.71118144 32.00671582 24 39 C21.8272578 41.63016161 20.05326212 43.47336894 17 45 C14.34120084 45.09832395 11.7086124 45.13629728 9.04956055 45.12939453 C8.22824646 45.13114685 7.40693237 45.13289917 6.56072998 45.13470459 C3.83603829 45.13911828 1.11141114 45.13618599 -1.61328125 45.1328125 C-3.50416578 45.13348587 -5.39505022 45.13445618 -7.28593445 45.13571167 C-11.25467755 45.13718815 -15.22339818 45.1350364 -19.19213867 45.13037109 C-24.27647608 45.12468551 -29.36076057 45.1279457 -34.44509602 45.13394356 C-38.35274147 45.13756047 -42.26037442 45.13640517 -46.16802025 45.13381577 C-48.04228916 45.13314902 -49.91655921 45.1339661 -51.7908268 45.13629532 C-54.41437397 45.13883906 -57.0378361 45.1349564 -59.66137695 45.12939453 C-60.43507126 45.13141876 -61.20876556 45.13344299 -62.00590515 45.13552856 C-65.79561763 45.12066965 -69.31570598 44.91586745 -73 44 C-73 43.67 -73 43.34 -73 43 C-71.88135559 42.99413376 -70.76271118 42.98826752 -69.61016846 42.98222351 C-59.07451286 42.92504201 -48.53906458 42.85230436 -38.00362015 42.76428509 C-32.58706394 42.71953337 -27.17058379 42.68028779 -21.75390625 42.65356445 C-16.52774326 42.62757946 -11.3018722 42.58721106 -6.07588959 42.53681374 C-4.08081439 42.5201125 -2.08568865 42.50861855 -0.09055328 42.50238609 C2.70133663 42.49278044 5.49247419 42.46476365 8.28417969 42.43237305 C9.11136505 42.43380814 9.93855042 42.43524323 10.790802 42.4367218 C14.09377551 42.38242886 16.56123055 42.23493043 19.50177002 40.66047668 C21.26037143 38.98248205 21.26037143 38.98248205 21.6875 36 C21.12302682 27.29618781 12.77452528 19.20954755 7.55322266 12.59130859 C0 3.01463165 0 3.01463165 0 0 Z " fill="#0F59A0" transform="translate(716,714)"/>
<path d="M0 0 C1.51776058 4.36103208 0.15637557 7.41126284 -1.2109375 11.66015625 C-3.28355418 20.43286546 -3.15883778 29.5665204 -3.16796875 38.53515625 C-3.17129715 39.69446152 -3.17462555 40.85376678 -3.17805481 42.04820251 C-3.18308557 44.48273322 -3.18546434 46.91727074 -3.18530273 49.35180664 C-3.18749592 53.05561708 -3.2057114 56.75913243 -3.22460938 60.46289062 C-3.22754286 62.84114483 -3.22952796 65.21940043 -3.23046875 67.59765625 C-3.23765427 68.69271988 -3.24483978 69.78778351 -3.25224304 70.91603088 C-3.2333299 77.33916395 -3.10803532 83.86530342 -1 90 C1.45320412 92.50025574 1.45320412 92.50025574 4 94 C4 94.66 4 95.32 4 96 C1.34278026 95.33569507 -0.49228228 94.66303927 -2.1875 92.44921875 C-5.17913486 87.31284565 -6.12167154 83.13589758 -6.16113281 77.16845703 C-6.17074036 75.99268097 -6.1803479 74.81690491 -6.19024658 73.60549927 C-6.19449646 72.33576263 -6.19874634 71.066026 -6.203125 69.7578125 C-6.20882507 68.44271698 -6.21452515 67.12762146 -6.22039795 65.77267456 C-6.2308973 62.98353695 -6.23674491 60.19442802 -6.24023438 57.40527344 C-6.24567474 53.87095283 -6.26960986 50.33702617 -6.29820633 46.80282784 C-6.3170609 44.05375156 -6.32205054 41.30476513 -6.32357025 38.55562973 C-6.32798417 36.63169604 -6.3465292 34.70781089 -6.36553955 32.78396606 C-6.33711656 21.34981602 -4.43617447 10.56232016 0 0 Z " fill="#1069B8" transform="translate(317,375)"/>
<path d="M0 0 C0.33 0 0.66 0 1 0 C1.00410889 0.8470752 1.00821777 1.69415039 1.01245117 2.56689453 C1.03953908 5.73206254 1.08873625 8.8959234 1.15258789 12.06054688 C1.17567894 13.42598665 1.1901427 14.79160229 1.19555664 16.15722656 C1.2049094 18.12850046 1.24862581 20.09951521 1.29296875 22.0703125 C1.3086792 23.25383301 1.32438965 24.43735352 1.34057617 25.65673828 C2.15837876 29.80297621 3.58458815 32.52963755 7 35 C10.60989985 35.89344957 14.14509431 35.8169241 17.84887695 35.77294922 C18.94200699 35.78357895 20.03513702 35.79420868 21.16139221 35.80516052 C24.77082175 35.83324202 28.37879215 35.81914295 31.98828125 35.8046875 C34.49221577 35.81593558 36.99613974 35.82981531 39.50004578 35.84622192 C45.41444623 35.87862261 51.32849551 35.88450301 57.24294585 35.87749684 C64.63930261 35.87036347 72.03537302 35.90447414 79.43164062 35.9375 C92.62113233 35.99140974 105.81040861 36.00868448 119 36 C119 36.33 119 36.66 119 37 C104.50101589 37.247599 90.00184401 37.46578889 75.50191307 37.65021229 C68.76905511 37.73636597 62.03658083 37.83196653 55.30419922 37.94995117 C48.80756634 38.06377762 42.31089093 38.15108714 35.81364822 38.22220421 C33.33441042 38.25368063 30.85526916 38.29405532 28.3763237 38.34345436 C24.90485204 38.41111459 21.43438458 38.44717381 17.96240234 38.47583008 C16.93669128 38.5031572 15.91098022 38.53048431 14.85418701 38.55863953 C10.33106831 38.56597082 7.03879121 38.54853392 3.40005493 35.6714325 C-1.60500737 30.10044081 -1.2938782 23.58814765 -1.1875 16.5 C-1.18685547 15.68402344 -1.18621094 14.86804688 -1.18554688 14.02734375 C-1.15107789 9.25530455 -0.79067235 4.70608183 0 0 Z " fill="#1876C4" transform="translate(257,720)"/>
<path d="M0 0 C0.5775 0.226875 1.155 0.45375 1.75 0.6875 C0.079375 1.43 0.079375 1.43 -1.625 2.1875 C-3.99429329 3.5085605 -5.04712853 4.23125686 -6.16015625 6.734375 C-6.62976794 8.6963083 -6.95074478 10.69246523 -7.25 12.6875 C-7.58 12.6875 -7.91 12.6875 -8.25 12.6875 C-8.58 61.5275 -8.91 110.3675 -9.25 160.6875 C-9.58 160.6875 -9.91 160.6875 -10.25 160.6875 C-10.34345329 140.97282886 -10.41398408 121.25820268 -10.45724869 101.54335594 C-10.47787141 92.38934295 -10.50598644 83.23546761 -10.55175781 74.08154297 C-10.59163448 66.10270776 -10.61743493 58.12397224 -10.62635398 50.14504015 C-10.63156734 45.92045476 -10.64381444 41.69615457 -10.67292023 37.47166061 C-10.70010255 33.49405618 -10.70843939 29.516854 -10.70243073 25.5391655 C-10.70352971 24.08068657 -10.71146713 22.62219398 -10.7268219 21.16379547 C-10.74678969 19.1691414 -10.73953918 17.17427072 -10.73101807 15.17953491 C-10.73470524 14.0641654 -10.73839241 12.94879589 -10.74219131 11.7996273 C-9.999308 7.10237363 -7.61758473 4.0123477 -4.25 0.75 C-2.25 -0.3125 -2.25 -0.3125 0 0 Z " fill="#1375C8" transform="translate(393.25,583.3125)"/>
<path d="M0 0 C-0.33 0.66 -0.66 1.32 -1 2 C-2.828125 2.60546875 -2.828125 2.60546875 -5.25 3.1875 C-24.02653075 8.54457011 -40.51525891 22.05405701 -50.21875 38.765625 C-51.10046875 40.36664063 -51.10046875 40.36664063 -52 42 C-52.4846875 42.86109375 -52.969375 43.7221875 -53.46875 44.609375 C-56.8991069 51.34458793 -58.31820776 58.33124187 -59.65722656 65.71533203 C-60.04776525 67.8216033 -60.51723466 69.91293586 -61 72 C-61.99 72.495 -61.99 72.495 -63 73 C-62.50000361 51.54560926 -51.95583019 32.83929126 -37 18 C-28.05207641 10.09253265 -12.40185758 -0.72952103 0 0 Z " fill="#1665AF" transform="translate(320,255)"/>
<path d="M0 0 C0.33 0 0.66 0 1 0 C0.51130232 6.78068038 -0.90113179 12.29900507 -3.5 18.5625 C-3.85674805 19.43165039 -4.21349609 20.30080078 -4.58105469 21.19628906 C-14.61487913 45.045179 -30.425865 66.24108809 -51 82 C-51.66 81.67 -52.32 81.34 -53 81 C-52.17757812 80.24976563 -51.35515625 79.49953125 -50.5078125 78.7265625 C-47.55975119 76.0292395 -44.62803871 73.31486234 -41.70556641 70.58984375 C-40.2278101 69.21235319 -38.74520122 67.84007189 -37.26171875 66.46875 C-19.07006448 49.0604684 -6.34462609 24.18888698 0 0 Z " fill="#1463AD" transform="translate(708,467)"/>
<path d="M0 0 C11.1492141 3.4841294 18.04111701 12.97042447 23.25 22.875 C27.94683125 32.13672903 29.45329627 41.29047268 29.29296875 51.57421875 C29.28872391 52.62406448 29.28447906 53.67391022 29.28010559 54.75556946 C29.26348518 58.06648827 29.225865 61.37676918 29.1875 64.6875 C29.17243164 66.94986092 29.15874703 69.21223151 29.14648438 71.47460938 C29.11363651 76.98328583 29.06360676 82.49159732 29 88 C28.67 88 28.34 88 28 88 C27.40196132 78.96534417 26.94005256 69.99363296 27.0625 60.9375 C27.20688496 41.14383012 24.28654456 23.57642673 9.84765625 8.796875 C6.65620228 5.8728613 4.33668314 3.7867434 0 3 C0 2.01 0 1.02 0 0 Z " fill="#1162AF" transform="translate(592,351)"/>
<path d="M0 0 C0.66 0 1.32 0 2 0 C2.08636719 0.66386719 2.17273438 1.32773437 2.26171875 2.01171875 C3.19634496 7.88528716 4.15077403 11.14548705 9 15 C9.33 15.33 9.66 15.66 10 16 C15.26339246 16.94779437 20.43874497 17.20101411 25.77734375 17.31640625 C26.58869278 17.33718735 27.40004181 17.35796844 28.23597717 17.37937927 C30.80307339 17.44425643 33.37026337 17.50346922 35.9375 17.5625 C37.68816036 17.60574418 39.43881158 17.64936026 41.18945312 17.69335938 C45.45954171 17.7998735 49.72972368 17.90131114 54 18 C54 18.33 54 18.66 54 19 C47.10564655 20.09953289 40.3112567 20.25640534 33.34936523 20.29516602 C31.91339255 20.30667974 30.47746247 20.32712246 29.04174805 20.35668945 C20.49951455 20.53198004 12.58706938 20.52408997 5 16 C1.95506617 12.95506617 0.11341701 10.37268389 -0.09765625 5.95703125 C-0.06510417 3.97135417 -0.03255208 1.98567708 0 0 Z " fill="#196BB7" transform="translate(329,398)"/>
<path d="M0 0 C0 0.33 0 0.66 0 1 C-0.79664063 1.08636719 -1.59328125 1.17273438 -2.4140625 1.26171875 C-9.15381744 2.15543321 -13.32772756 2.94889466 -18 8 C-19.84455761 11.68911523 -19.35062965 15.96457145 -19 20 C-17.26722714 24.1951343 -14.63244133 26.34929957 -11 29 C-15.83407252 28.58565093 -17.89537674 26.62206046 -21 23 C-22.86080151 17.41759548 -22.93825348 11.94868031 -20.375 6.625 C-14.06379366 -0.35054385 -9.01717797 -0.5252725 0 0 Z " fill="#1266B4" transform="translate(556,387)"/>
<path d="M0 0 C0.33 0 0.66 0 1 0 C1.8376655 6.84564432 2.08841778 13.49371121 1.87890625 20.3828125 C1.85529526 21.32309296 1.83168427 22.26337341 1.80735779 23.23214722 C1.73158976 26.19661947 1.64719915 29.16077088 1.5625 32.125 C1.50919204 34.15102666 1.45645246 36.17706835 1.40429688 38.203125 C1.27609428 43.13561472 1.14016524 48.06783632 1 53 C0.67 53 0.34 53 0 53 C-1.74750081 16.1955879 -1.74750081 16.1955879 0 0 Z " fill="#1162AE" transform="translate(257,659)"/>
<path d="M0 0 C5.76219112 -0.34573147 10.04096075 -0.34446833 15 3 C18.61469436 6.61469436 20.24103336 9.94022241 21 15 C20.26821962 19.89535838 18.71471373 23.78175764 15 27.125 C14.01 27.74375 13.02 28.3625 12 29 C11.01 28.67 10.02 28.34 9 28 C10.423125 27.1028125 10.423125 27.1028125 11.875 26.1875 C15.13964197 24.18437474 15.13964197 24.18437474 17 21 C17.58190144 16.11807362 17.61701919 11.51169701 15.75 6.9375 C12.65326847 3.50897581 9.19931686 2.694611 4.75 1.875 C3.85796875 1.70742188 2.9659375 1.53984375 2.046875 1.3671875 C1.03367187 1.18542969 1.03367187 1.18542969 0 1 C0 0.67 0 0.34 0 0 Z " fill="#1167B4" transform="translate(376,387)"/>
<path d="M0 0 C0.33 0 0.66 0 1 0 C1.00410889 0.8470752 1.00821777 1.69415039 1.01245117 2.56689453 C1.03953908 5.73206254 1.08873625 8.8959234 1.15258789 12.06054688 C1.17567894 13.42598665 1.1901427 14.79160229 1.19555664 16.15722656 C0.88109046 25.03549219 0.88109046 25.03549219 4.42578125 32.8046875 C5.27527344 33.52914062 6.12476563 34.25359375 7 35 C7.66 35.66 8.32 36.32 9 37 C5.55169199 36.712641 4.23781351 36.23781351 1.75 33.75 C-1.63212568 28.43523108 -1.15335402 22.73056488 -1.125 16.625 C-1.12886719 15.8 -1.13273438 14.975 -1.13671875 14.125 C-1.12907752 9.31102543 -0.80603865 4.74667208 0 0 Z " fill="#1A62A5" transform="translate(257,720)"/>
<path d="M0 0 C0.33 0 0.66 0 1 0 C2.55505317 11.33992618 1.66985363 22.62008307 1 34 C0.67 34 0.34 34 0 34 C-0.33 31.03 -0.66 28.06 -1 25 C-1.33 25 -1.66 25 -2 25 C-2.36011137 16.49737031 -1.2527717 8.38909618 0 0 Z " fill="#1875C5" transform="translate(258,518)"/>
<path d="M0 0 C1.75 0.125 1.75 0.125 4 1 C8.09597381 6.38327986 9.45010524 10.24842136 9 17 C7.42183083 21.65559907 5.73237836 24.78243245 2 28 C1.01 27.67 0.02 27.34 -1 27 C-0.21625 26.443125 0.5675 25.88625 1.375 25.3125 C5.37544976 21.78829426 5.89463559 19.32759154 6.3125 14.0625 C6.16338583 8.4068126 3.48339166 4.31277063 0 0 Z " fill="#1466B3" transform="translate(593,387)"/>
<path d="M0 0 C0.33 0 0.66 0 1 0 C1.0816082 2.37570543 1.14077222 4.74855841 1.1875 7.125 C1.21263672 7.79015625 1.23777344 8.4553125 1.26367188 9.140625 C1.33335093 13.87880086 0.49037262 16.98346078 -2 21 C-6.11312933 24.80464463 -9.12711303 26.14308532 -14.6875 26.0625 C-15.89986328 26.04896484 -15.89986328 26.04896484 -17.13671875 26.03515625 C-17.75160156 26.02355469 -18.36648438 26.01195312 -19 26 C-19 25.67 -19 25.34 -19 25 C-18.34773437 24.91363281 -17.69546875 24.82726562 -17.0234375 24.73828125 C-10.85659189 23.74685622 -7.37990323 22.49220844 -3 18 C-1.4173007 14.8346014 -1.34303451 11.35358491 -0.9375 7.875 C-0.84662109 7.12089844 -0.75574219 6.36679687 -0.66210938 5.58984375 C-0.43809148 3.72695812 -0.21861427 1.86352748 0 0 Z " fill="#1364B0" transform="translate(620,446)"/>
<path d="M0 0 C3.58362776 0.13910487 7.16681498 0.28745413 10.75 0.4375 C11.76578125 0.47681641 12.7815625 0.51613281 13.828125 0.55664062 C15.29765625 0.61948242 15.29765625 0.61948242 16.796875 0.68359375 C18.14797363 0.73858032 18.14797363 0.73858032 19.52636719 0.79467773 C21.79596339 0.98306407 23.81562887 1.37366501 26 2 C25.67 2.66 25.34 3.32 25 4 C12.13 3.505 12.13 3.505 -1 3 C-0.67 2.01 -0.34 1.02 0 0 Z " fill="#1770BF" transform="translate(350,383)"/>
<path d="M0 0 C0 0.33 0 0.66 0 1 C-1.794375 1.37125 -1.794375 1.37125 -3.625 1.75 C-7.73047382 2.79635085 -10.71085322 4.24629572 -14 7 C-15.88568694 10.10014929 -15.88568694 10.10014929 -17 13 C-18.09659065 10.30836841 -18.09578609 9.23946523 -17 6.5 C-13.96438403 2.70548004 -10.38374335 0.88539039 -5.8125 -0.8125 C-3.66167625 -1.03499901 -2.04738547 -0.65808819 0 0 Z " fill="#1367B6" transform="translate(348,384)"/>
<path d="M0 0 C0.66 0 1.32 0 2 0 C2 0.66 2 1.32 2 2 C1.34 2 0.68 2 0 2 C-0.268125 2.56203125 -0.53625 3.1240625 -0.8125 3.703125 C-2.0803979 6.15550646 -3.48972342 8.43927683 -5 10.75 C-5.515625 11.54921875 -6.03125 12.3484375 -6.5625 13.171875 C-7.2740625 14.07679688 -7.2740625 14.07679688 -8 15 C-8.66 15 -9.32 15 -10 15 C-8.65794923 11.19639883 -6.95995677 8.38858921 -4.4375 5.25 C-3.81746094 4.47140625 -3.19742187 3.6928125 -2.55859375 2.890625 C-1 1 -1 1 0 0 Z " fill="#1467B6" transform="translate(329,358)"/>
<path d="M0 0 C0.66 0 1.32 0 2 0 C2.16435547 0.99580078 2.16435547 0.99580078 2.33203125 2.01171875 C3.21136023 6.90879478 3.99451714 10.90161428 7 15 C5.1875 14.875 5.1875 14.875 3 14 C-0.24524216 9.24803827 -0.28643366 5.53771745 0 0 Z " fill="#1266B3" transform="translate(329,398)"/>
<path d="M0 0 C11.52164009 -0.3690205 11.52164009 -0.3690205 17 2 C17 2.33 17 2.66 17 3 C14.72858891 2.88597936 12.45785448 2.75841495 10.1875 2.625 C8.92292969 2.55539063 7.65835938 2.48578125 6.35546875 2.4140625 C3 2 3 2 0 0 Z " fill="#1367B5" transform="translate(557,252)"/>
<path d="M0 0 C0.66 0.33 1.32 0.66 2 1 C2.44117322 5.49996683 2.52867608 7.34611117 -0.375 10.9375 C-3 13 -3 13 -5 13 C-5 12.34 -5 11.68 -5 11 C-4.0409375 10.443125 -4.0409375 10.443125 -3.0625 9.875 C0.11375748 6.9874932 -0.2754081 4.19997357 0 0 Z " fill="#165B99" transform="translate(738,745)"/>
<path d="M0 0 C0.66 0 1.32 0 2 0 C0.65365543 4.4062186 -1.19374374 6.43077702 -5 9 C-5.66 9 -6.32 9 -7 9 C-7 8.34 -7 7.68 -7 7 C-5.824375 6.6596875 -5.824375 6.6596875 -4.625 6.3125 C-1.78125 5.21875 -1.78125 5.21875 -0.6875 2.375 C-0.460625 1.59125 -0.23375 0.8075 0 0 Z " fill="#1A63A5" transform="translate(383,749)"/>
<path d="M0 0 C0 3 0 3 -1.53125 4.60546875 C-2.1809375 5.12753906 -2.830625 5.64960937 -3.5 6.1875 C-4.1496875 6.71730469 -4.799375 7.24710938 -5.46875 7.79296875 C-5.9740625 8.19128906 -6.479375 8.58960938 -7 9 C-7.66 8.67 -8.32 8.34 -9 8 C-6.03 5.36 -3.06 2.72 0 0 Z " fill="#1361AB" transform="translate(664,540)"/>
<path d="M0 0 C5.28 0 10.56 0 16 0 C16 0.33 16 0.66 16 1 C10.72 1 5.44 1 0 1 C0 0.67 0 0.34 0 0 Z " fill="#3A84C5" transform="translate(528,248)"/>
<path d="M0 0 C4.95 0 9.9 0 15 0 C15 0.33 15 0.66 15 1 C10.05 1 5.1 1 0 1 C0 0.67 0 0.34 0 0 Z " fill="#3B86C8" transform="translate(352,248)"/>
<path d="M0 0 C4.62 0 9.24 0 14 0 C14 0.33 14 0.66 14 1 C9.38 1 4.76 1 0 1 C0 0.67 0 0.34 0 0 Z " fill="#3D85C6" transform="translate(465,248)"/>
<path d="M0 0 C3.3 0 6.6 0 10 0 C10 0.33 10 0.66 10 1 C6.7 1 3.4 1 0 1 C0 0.67 0 0.34 0 0 Z " fill="#3A84C5" transform="translate(368,248)"/>
<path d="M0 0 C2.64 0 5.28 0 8 0 C8 0.33 8 0.66 8 1 C5.36 1 2.72 1 0 1 C0 0.67 0 0.34 0 0 Z " fill="#3D86C8" transform="translate(400,248)"/>
<path d="M0 0 C2.31 0 4.62 0 7 0 C7 0.33 7 0.66 7 1 C4.69 1 2.38 1 0 1 C0 0.67 0 0.34 0 0 Z " fill="#3E87C7" transform="translate(498,248)"/>
<path d="M0 0 C1.98 0 3.96 0 6 0 C6 0.33 6 0.66 6 1 C4.02 1 2.04 1 0 1 C0 0.67 0 0.34 0 0 Z " fill="#3D86C6" transform="translate(481,248)"/>
<path d="M0 0 C1.98 0 3.96 0 6 0 C6 0.33 6 0.66 6 1 C4.02 1 2.04 1 0 1 C0 0.67 0 0.34 0 0 Z " fill="#3B84C4" transform="translate(449,248)"/>
<path d="M0 0 C1.98 0 3.96 0 6 0 C6 0.33 6 0.66 6 1 C4.02 1 2.04 1 0 1 C0 0.67 0 0.34 0 0 Z " fill="#3D87C7" transform="translate(393,248)"/>
<path d="M0 0 C1.65 0 3.3 0 5 0 C5 0.33 5 0.66 5 1 C3.35 1 1.7 1 0 1 C0 0.67 0 0.34 0 0 Z " fill="#3A85C5" transform="translate(520,248)"/>
<path d="M0 0 C4 1 4 1 4 1 Z " fill="#328BD5" transform="translate(552,384)"/>
<path d="M0 0 C4 1 4 1 4 1 Z " fill="#3C85C6" transform="translate(491,248)"/>
<path d="M0 0 C4 1 4 1 4 1 Z " fill="#3A85C7" transform="translate(417,248)"/>
<path d="M0 0 C4 1 4 1 4 1 Z " fill="#3B86C7" transform="translate(388,248)"/>
<path d="M0 0 C4 1 4 1 4 1 Z " fill="#3C89C8" transform="translate(379,248)"/>
<path d="M0 0 C0.66 0.66 1.32 1.32 2 2 C1.34 2 0.68 2 0 2 C0 1.34 0 0.68 0 0 Z " fill="#2F80C7" transform="translate(521,648)"/>
<path d="" fill="#2F82CB" transform="translate(0,0)"/>
<path d="M0 0 C3 1 3 1 3 1 Z " fill="#3884C6" transform="translate(554,249)"/>
<path d="M0 0 C3 1 3 1 3 1 Z " fill="#3784C8" transform="translate(545,248)"/>
<path d="M0 0 C3 1 3 1 3 1 Z " fill="#3A85C5" transform="translate(441,248)"/>
<path d="M0 0 C3 1 3 1 3 1 Z " fill="#3C88C6" transform="translate(428,248)"/>
<path d="M0 0 C3 1 3 1 3 1 Z " fill="#3D88C7" transform="translate(410,248)"/>
<path d="M0 0 C3 1 3 1 3 1 Z " fill="#3B86C8" transform="translate(348,248)"/>
<path d="M0 0 C3 1 3 1 3 1 Z " fill="#3784C6" transform="translate(341,248)"/>
<path d="M0 0 C2 1 2 1 2 1 Z " fill="#357EBD" transform="translate(621,759)"/>
<path d="" fill="#307ABA" transform="translate(0,0)"/>
<path d="" fill="#357DB7" transform="translate(0,0)"/>
<path d="M0 0 C2 1 2 1 2 1 Z " fill="#3083CB" transform="translate(645,609)"/>
<path d="" fill="#3086CF" transform="translate(0,0)"/>
<path d="" fill="#3384C9" transform="translate(0,0)"/>
<path d="" fill="#3583C5" transform="translate(0,0)"/>
<path d="M0 0 C2 1 2 1 2 1 Z " fill="#378AD2" transform="translate(336,384)"/>
<path d="M0 0 C2 1 2 1 2 1 Z " fill="#3089D4" transform="translate(329,384)"/>
<path d="M0 0 C2 1 2 1 2 1 Z " fill="#338AD6" transform="translate(569,347)"/>
<path d="M0 0 C2 1 2 1 2 1 Z " fill="#3983C4" transform="translate(305,257)"/>
<path d="M0 0 C2 1 2 1 2 1 Z " fill="#3C87C6" transform="translate(514,248)"/>
<path d="M0 0 C2 1 2 1 2 1 Z " fill="#3E87C6" transform="translate(510,248)"/>
<path d="M0 0 C2 1 2 1 2 1 Z " fill="#3E86C7" transform="translate(507,248)"/>
<path d="M0 0 C2 1 2 1 2 1 Z " fill="#3D86C6" transform="translate(461,248)"/>
<path d="M0 0 C2 1 2 1 2 1 Z " fill="#3D86C7" transform="translate(437,248)"/>
<path d="M0 0 C2 1 2 1 2 1 Z " fill="#3C86C8" transform="translate(432,248)"/>
<path d="M0 0 C2 1 2 1 2 1 Z " fill="#3985C8" transform="translate(422,248)"/>
<path d="" fill="#3D3E3E" transform="translate(0,0)"/>
<path d="" fill="#404242" transform="translate(0,0)"/>
<path d="" fill="#3678AE" transform="translate(0,0)"/>
<path d="" fill="#3379B2" transform="translate(0,0)"/>
<path d="" fill="#337CBA" transform="translate(0,0)"/>
<path d="" fill="#3A75A5" transform="translate(0,0)"/>
<path d="" fill="#3179B8" transform="translate(0,0)"/>
<path d="" fill="#327BB8" transform="translate(0,0)"/>
<path d="" fill="#347BB8" transform="translate(0,0)"/>
<path d="" fill="#367BB9" transform="translate(0,0)"/>
<path d="" fill="#3179B8" transform="translate(0,0)"/>
<path d="" fill="#3379B7" transform="translate(0,0)"/>
<path d="" fill="#317AB8" transform="translate(0,0)"/>
<path d="" fill="#307ABA" transform="translate(0,0)"/>
<path d="" fill="#2F7EBB" transform="translate(0,0)"/>
<path d="" fill="#2E7CBA" transform="translate(0,0)"/>
<path d="" fill="#327CBC" transform="translate(0,0)"/>
<path d="" fill="#317DC0" transform="translate(0,0)"/>
<path d="" fill="#2F7CC0" transform="translate(0,0)"/>
<path d="" fill="#2F7EC1" transform="translate(0,0)"/>
<path d="" fill="#2F7EC0" transform="translate(0,0)"/>
<path d="" fill="#327EC3" transform="translate(0,0)"/>
<path d="" fill="#2D7DC1" transform="translate(0,0)"/>
<path d="" fill="#2E7EC2" transform="translate(0,0)"/>
<path d="" fill="#3280C2" transform="translate(0,0)"/>
<path d="" fill="#327FC1" transform="translate(0,0)"/>
<path d="" fill="#327FC4" transform="translate(0,0)"/>
<path d="" fill="#337EC3" transform="translate(0,0)"/>
<path d="" fill="#3380C5" transform="translate(0,0)"/>
<path d="" fill="#2F80C5" transform="translate(0,0)"/>
<path d="" fill="#2E7CC1" transform="translate(0,0)"/>
<path d="" fill="#3482C5" transform="translate(0,0)"/>
<path d="" fill="#307EC4" transform="translate(0,0)"/>
<path d="" fill="#3080C3" transform="translate(0,0)"/>
<path d="" fill="#3283C7" transform="translate(0,0)"/>
<path d="" fill="#3383C8" transform="translate(0,0)"/>
<path d="" fill="#317FC7" transform="translate(0,0)"/>
<path d="" fill="#2E7EC6" transform="translate(0,0)"/>
<path d="" fill="#2E81C8" transform="translate(0,0)"/>
<path d="" fill="#3082C8" transform="translate(0,0)"/>
<path d="" fill="#3384C8" transform="translate(0,0)"/>
<path d="" fill="#3182C6" transform="translate(0,0)"/>
<path d="" fill="#3282C7" transform="translate(0,0)"/>
<path d="" fill="#3081C8" transform="translate(0,0)"/>
<path d="" fill="#3182C9" transform="translate(0,0)"/>
<path d="" fill="#3083CC" transform="translate(0,0)"/>
<path d="" fill="#3181CA" transform="translate(0,0)"/>
<path d="" fill="#2D80C7" transform="translate(0,0)"/>
<path d="" fill="#3084CB" transform="translate(0,0)"/>
<path d="" fill="#2F87D1" transform="translate(0,0)"/>
<path d="" fill="#3289D3" transform="translate(0,0)"/>
<path d="" fill="#3486CF" transform="translate(0,0)"/>
<path d="" fill="#3284CA" transform="translate(0,0)"/>
<path d="" fill="#3283CB" transform="translate(0,0)"/>
<path d="" fill="#3284C7" transform="translate(0,0)"/>
<path d="" fill="#3183C9" transform="translate(0,0)"/>
<path d="" fill="#3486CB" transform="translate(0,0)"/>
<path d="" fill="#3683C7" transform="translate(0,0)"/>
<path d="" fill="#3586CB" transform="translate(0,0)"/>
<path d="" fill="#3484C9" transform="translate(0,0)"/>
<path d="" fill="#3685C6" transform="translate(0,0)"/>
<path d="" fill="#3581C5" transform="translate(0,0)"/>
<path d="" fill="#3685C9" transform="translate(0,0)"/>
<path d="" fill="#3584C8" transform="translate(0,0)"/>
<path d="" fill="#3585C9" transform="translate(0,0)"/>
<path d="" fill="#328AD5" transform="translate(0,0)"/>
<path d="" fill="#308CD5" transform="translate(0,0)"/>
<path d="" fill="#2F89CF" transform="translate(0,0)"/>
<path d="" fill="#3088D1" transform="translate(0,0)"/>
<path d="" fill="#3088D2" transform="translate(0,0)"/>
<path d="" fill="#328AD5" transform="translate(0,0)"/>
<path d="" fill="#328BD4" transform="translate(0,0)"/>
<path d="" fill="#308AD5" transform="translate(0,0)"/>
<path d="" fill="#308CD6" transform="translate(0,0)"/>
<path d="" fill="#3189D2" transform="translate(0,0)"/>
<path d="" fill="#328CD9" transform="translate(0,0)"/>
<path d="" fill="#3785CC" transform="translate(0,0)"/>
<path d="" fill="#2F88D3" transform="translate(0,0)"/>
<path d="" fill="#2F87D5" transform="translate(0,0)"/>
<path d="" fill="#3189D2" transform="translate(0,0)"/>
<path d="" fill="#3089D7" transform="translate(0,0)"/>
<path d="" fill="#2F86D2" transform="translate(0,0)"/>
<path d="" fill="#328ED9" transform="translate(0,0)"/>
<path d="" fill="#3088D3" transform="translate(0,0)"/>
<path d="" fill="#318AD4" transform="translate(0,0)"/>
<path d="" fill="#3188D3" transform="translate(0,0)"/>
<path d="" fill="#2F89D4" transform="translate(0,0)"/>
<path d="" fill="#2F8AD6" transform="translate(0,0)"/>
<path d="" fill="#328AD8" transform="translate(0,0)"/>
<path d="" fill="#3785C7" transform="translate(0,0)"/>
<path d="" fill="#3783C6" transform="translate(0,0)"/>
<path d="" fill="#3483C6" transform="translate(0,0)"/>
<path d="" fill="#3481C4" transform="translate(0,0)"/>
<path d="" fill="#3281C2" transform="translate(0,0)"/>
<path d="" fill="#3280C3" transform="translate(0,0)"/>
<path d="" fill="#3581C2" transform="translate(0,0)"/>
<path d="" fill="#3783C2" transform="translate(0,0)"/>
<path d="" fill="#3484C7" transform="translate(0,0)"/>
<path d="" fill="#3884C2" transform="translate(0,0)"/>
<path d="" fill="#3983C1" transform="translate(0,0)"/>
<path d="" fill="#3482C9" transform="translate(0,0)"/>
<path d="" fill="#3283C6" transform="translate(0,0)"/>
<path d="" fill="#3784C9" transform="translate(0,0)"/>
<path d="" fill="#3280C7" transform="translate(0,0)"/>
<path d="" fill="#3383C6" transform="translate(0,0)"/>
<path d="" fill="#3882C3" transform="translate(0,0)"/>
<path d="" fill="#3686C9" transform="translate(0,0)"/>
<path d="" fill="#3485C7" transform="translate(0,0)"/>
<path d="" fill="#3984C6" transform="translate(0,0)"/>
<path d="" fill="#3586CA" transform="translate(0,0)"/>
<path d="" fill="#3985C8" transform="translate(0,0)"/>
<path d="" fill="#3685C8" transform="translate(0,0)"/>
<path d="" fill="#3886C6" transform="translate(0,0)"/>
<path d="" fill="#3784C7" transform="translate(0,0)"/>
<path d="" fill="#3D87C7" transform="translate(0,0)"/>
<path d="" fill="#3B86C7" transform="translate(0,0)"/>
<path d="" fill="#3C86C8" transform="translate(0,0)"/>
<path d="" fill="#3C86C6" transform="translate(0,0)"/>
<path d="" fill="#3C86C9" transform="translate(0,0)"/>
<path d="" fill="#3D88C9" transform="translate(0,0)"/>
<path d="" fill="#3E87C8" transform="translate(0,0)"/>
<path d="" fill="#3E87CA" transform="translate(0,0)"/>
<path d="" fill="#3B85CA" transform="translate(0,0)"/>
<path d="" fill="#404142" transform="translate(0,0)"/>
</svg>
